<?xml version="1.0" encoding="UTF-8" standalone="no"?>
<svg
   xmlns:dc="http://purl.org/dc/elements/1.1/"
   xmlns:cc="http://creativecommons.org/ns#"
   xmlns:rdf="http://www.w3.org/1999/02/22-rdf-syntax-ns#"
   xmlns:svg="http://www.w3.org/2000/svg"
   xmlns="http://www.w3.org/2000/svg"
   id="svg360"
   version="1.1"
   viewBox="0 0 14.523252 14.523155"
   height="14.523155mm"
   width="14.523252mm">
  <defs
     id="defs354" />
  <metadata
     id="metadata357">
    <rdf:RDF>
      <cc:Work
         rdf:about="">
        <dc:format>image/svg+xml</dc:format>
        <dc:type
           rdf:resource="http://purl.org/dc/dcmitype/StillImage" />
        <dc:title></dc:title>
      </cc:Work>
    </rdf:RDF>
  </metadata>
  <g
     transform="translate(-22.220517,-10.88128)"
     id="layer1">
    <path
       d="m 29.482328,10.88128 c -4.00981,0 -7.26157,3.251553 -7.26157,7.261578 0,4.009672 3.25176,7.261577 7.26157,7.261577 4.00982,0 7.26144,-3.251905 7.26144,-7.261577 0,-4.010025 -3.25162,-7.261578 -7.26144,-7.261578"
       style="fill:#00adef;fill-opacity:1;fill-rule:evenodd;stroke:none;stroke-width:0.0352777"
       id="path90" />
    <path
       d="m 29.482328,10.88128 c -4.00981,0 -7.26157,3.251553 -7.26157,7.261578 0,4.009672 3.25176,7.261577 7.26157,7.261577 V 10.88128"
       style="fill:#2e9ad6;fill-opacity:1;fill-rule:evenodd;stroke:none;stroke-width:0.0352777"
       id="path92" />
    <path
       d="m 29.482188,13.587438 c -2.51534,0 -4.55524,2.040114 -4.55524,4.55542 0,2.515305 2.0399,4.555419 4.55524,4.555419 2.51549,0 4.55539,-2.040114 4.55539,-4.555419 0,-2.515306 -2.0399,-4.55542 -4.55539,-4.55542"
       style="fill:#ffffff;fill-opacity:1;fill-rule:evenodd;stroke:none;stroke-width:0.0352777"
       id="path94" />
    <path
       d="m 32.491988,11.532508 c -0.91698,-0.418042 -1.93615,-0.651228 -3.00966,-0.651228 -1.07364,0 -2.09296,0.233186 -3.0099,0.65158 0.75876,0.791634 1.82672,1.284817 3.00962,1.284817 1.18318,0 2.25132,-0.493183 3.00994,-1.285169 z m -9.61983,3.600802 c -0.41808,0.91687 -0.6514,1.936045 -0.6514,3.009548 0,1.073502 0.23318,2.092677 0.6514,3.009547 0.79167,-0.758473 1.28489,-1.826684 1.28489,-3.009195 0,-1.183216 -0.49322,-2.251075 -1.28489,-3.0099 z m 6.60989,8.334728 c -1.18276,0 -2.25086,0.493183 -3.00947,1.285169 0.91679,0.418042 1.93625,0.651228 3.00975,0.651228 1.07351,0 2.09268,-0.233186 3.00952,-0.651228 -0.75876,-0.791986 -1.82676,-1.285169 -3.0098,-1.285169 z m 5.32529,-5.324828 c 0,1.182864 0.49308,2.250722 1.28503,3.009195 0.41839,-0.916517 0.6514,-1.936045 0.6514,-3.009547 0,-1.073503 -0.23301,-2.093031 -0.65126,-3.009548 -0.79181,0.758473 -1.28517,1.826684 -1.28517,3.0099"
       style="fill:#ffffff;fill-opacity:1;fill-rule:evenodd;stroke:none;stroke-width:0.0352777"
       id="path96" />
    <path
       d="m 29.482188,13.587438 c -2.51534,0 -4.55524,2.040114 -4.55524,4.55542 0,2.515305 2.0399,4.555419 4.55538,4.555419 z m -6.61003,1.545872 c -0.86871,1.905353 -0.869,4.113742 0,6.019095 1.7133,-1.641122 1.71263,-4.37762 0,-6.019095 z m 6.61017,-4.25203 c -1.07364,0 -2.09296,0.233186 -3.0099,0.65158 0.75876,0.791987 1.82686,1.284817 3.0099,1.284817 z m 0,12.586758 c -1.18289,0 -2.25104,0.49283 -3.00975,1.285169 0.91679,0.418042 1.93625,0.651228 3.00975,0.651228 v -1.936397"
       style="fill:#e7e6e6;fill-opacity:1;fill-rule:evenodd;stroke:none;stroke-width:0.0352777"
       id="path98" />
  </g>
</svg>
