<?xml version="1.0" encoding="UTF-8" standalone="no"?>
<svg
   xmlns:dc="http://purl.org/dc/elements/1.1/"
   xmlns:cc="http://creativecommons.org/ns#"
   xmlns:rdf="http://www.w3.org/1999/02/22-rdf-syntax-ns#"
   xmlns:svg="http://www.w3.org/2000/svg"
   xmlns="http://www.w3.org/2000/svg"
   id="svg128"
   version="1.1"
   viewBox="0 0 14.523469 14.52315"
   height="14.52315mm"
   width="14.523469mm">
  <defs
     id="defs122" />
  <metadata
     id="metadata125">
    <rdf:RDF>
      <cc:Work
         rdf:about="">
        <dc:format>image/svg+xml</dc:format>
        <dc:type
           rdf:resource="http://purl.org/dc/dcmitype/StillImage" />
        <dc:title></dc:title>
      </cc:Work>
    </rdf:RDF>
  </metadata>
  <g
     transform="translate(-98.571601,-140.90509)"
     id="layer1">
    <path
       id="path132"
       style="fill:#78b9a7;fill-opacity:1;fill-rule:evenodd;stroke:none;stroke-width:0.0352777"
       d="m 105.83349,140.90509 c -4.00967,0 -7.26158,3.25155 -7.26158,7.26158 0,4.00967 3.25191,7.26157 7.26158,7.26157 4.00967,0 7.26158,-3.2519 7.26158,-7.26157 0,-4.01003 -3.25191,-7.26158 -7.26158,-7.26158" />
    <path
       id="path134"
       style="fill:#4fa78d;fill-opacity:1;fill-rule:evenodd;stroke:none;stroke-width:0.0352777"
       d="m 105.83349,140.90509 c -4.00967,0 -7.26158,3.25155 -7.26158,7.26158 0,4.00967 3.25191,7.26157 7.26158,7.26157 v -14.52315" />
    <path
       id="path136"
       style="fill:#ffffff;fill-opacity:1;fill-rule:evenodd;stroke:none;stroke-width:0.0352777"
       d="m 105.83349,143.61125 c -2.51531,0 -4.55542,2.04011 -4.55542,4.55542 0,2.5153 2.04011,4.55542 4.55542,4.55542 2.5153,0 4.55542,-2.04012 4.55542,-4.55542 0,-2.51531 -2.04012,-4.55542 -4.55542,-4.55542" />
    <path
       id="path138"
       style="fill:#ffffff;fill-opacity:1;fill-rule:evenodd;stroke:none;stroke-width:0.0352777"
       d="m 108.84304,141.55632 c -0.91687,-0.41804 -1.93605,-0.65123 -3.00955,-0.65123 -1.07351,0 -2.09268,0.23319 -3.0099,0.65158 0.75882,0.79163 1.82668,1.28482 3.0099,1.28482 1.18286,0 2.25107,-0.49319 3.00955,-1.28517 z m -9.619902,3.6008 c -0.418042,0.91687 -0.651228,1.93604 -0.651228,3.00955 0,1.0735 0.233186,2.09267 0.651228,3.00954 0.791982,-0.75847 1.285172,-1.82668 1.285172,-3.00919 0,-1.18322 -0.49319,-2.25108 -1.285172,-3.0099 z m 6.610352,8.33473 c -1.18287,0 -2.25108,0.49318 -3.0099,1.28517 0.91722,0.41804 1.93639,0.65122 3.0099,0.65122 1.0735,0 2.09268,-0.23318 3.00955,-0.65122 -0.75883,-0.79199 -1.82669,-1.28517 -3.00955,-1.28517 z m 5.32483,-5.32483 c 0,1.18286 0.49318,2.25072 1.28516,3.00919 0.4184,-0.91651 0.65159,-1.93604 0.65159,-3.00954 0,-1.07351 -0.23319,-2.09303 -0.65123,-3.00955 -0.79199,0.75847 -1.28552,1.82668 -1.28552,3.0099" />
    <path
       id="path140"
       style="fill:#e7e6e6;fill-opacity:1;fill-rule:evenodd;stroke:none;stroke-width:0.0352777"
       d="m 105.83349,143.61125 c -2.51531,0 -4.55542,2.04011 -4.55542,4.55542 0,2.5153 2.04011,4.55542 4.55542,4.55542 z m -6.610352,1.54587 c -0.868539,1.90535 -0.868892,4.11374 0,6.01909 1.713442,-1.64112 1.712732,-4.37762 0,-6.01909 z m 6.610352,-4.25203 c -1.07351,0 -2.09268,0.23319 -3.0099,0.65158 0.75882,0.79199 1.82703,1.28482 3.0099,1.28482 z m 0,12.58676 c -1.18287,0 -2.25108,0.49283 -3.0099,1.28517 0.91722,0.41804 1.93639,0.65122 3.0099,0.65122 v -1.93639" />
  </g>
</svg>
