<?xml version="1.0" encoding="UTF-8" standalone="no"?>
<svg
   xmlns:dc="http://purl.org/dc/elements/1.1/"
   xmlns:cc="http://creativecommons.org/ns#"
   xmlns:rdf="http://www.w3.org/1999/02/22-rdf-syntax-ns#"
   xmlns:svg="http://www.w3.org/2000/svg"
   xmlns="http://www.w3.org/2000/svg"
   id="svg128"
   version="1.1"
   viewBox="0 0 14.52324 14.52312"
   height="14.52312mm"
   width="14.523239mm">
  <defs
     id="defs122" />
  <metadata
     id="metadata125">
    <rdf:RDF>
      <cc:Work
         rdf:about="">
        <dc:format>image/svg+xml</dc:format>
        <dc:type
           rdf:resource="http://purl.org/dc/dcmitype/StillImage" />
        <dc:title></dc:title>
      </cc:Work>
    </rdf:RDF>
  </metadata>
  <g
     transform="translate(-98.571711,-140.90511)"
     id="layer1">
    <path
       id="path146"
       style="fill:#ed6b30;fill-opacity:1;fill-rule:evenodd;stroke:none;stroke-width:0.0352777"
       d="m 105.83338,140.90511 c -4.00968,0 -7.261228,3.25173 -7.261228,7.26157 0,4.00982 3.251548,7.26155 7.261228,7.26155 4.01002,0 7.26157,-3.25173 7.26157,-7.26155 0,-4.00984 -3.25155,-7.26157 -7.26157,-7.26157" />
    <path
       id="path148"
       style="fill:#d33f29;fill-opacity:1;fill-rule:evenodd;stroke:none;stroke-width:0.0352777"
       d="m 105.83338,140.90511 c -4.00968,0 -7.261228,3.25173 -7.261228,7.26157 0,4.00982 3.251548,7.26155 7.261228,7.26155 v -14.52312" />
    <path
       id="path150"
       style="fill:#ffffff;fill-opacity:1;fill-rule:evenodd;stroke:none;stroke-width:0.0352777"
       d="m 105.83338,143.61144 c -2.51531,0 -4.55507,2.0399 -4.55507,4.55535 0,2.5152 2.03976,4.55514 4.55507,4.55514 2.51565,0 4.55542,-2.03994 4.55542,-4.55514 0,-2.51545 -2.03977,-4.55535 -4.55542,-4.55535" />
    <path
       id="path152"
       style="fill:#ffffff;fill-opacity:1;fill-rule:evenodd;stroke:none;stroke-width:0.0352777"
       d="m 108.84328,141.55651 c -0.91723,-0.41811 -1.9364,-0.6514 -3.0099,-0.6514 -1.07351,0 -2.09268,0.23329 -3.0099,0.65151 0.75882,0.79198 1.82703,1.28502 3.0099,1.28502 1.18286,0 2.25107,-0.49332 3.0099,-1.28513 z m -9.6199,3.60066 c -0.418042,0.91694 -0.651228,1.93615 -0.651228,3.00951 0,1.07347 0.232833,2.09282 0.651228,3.00962 0.79199,-0.75861 1.28482,-1.82658 1.28482,-3.00937 0,-1.18304 -0.49319,-2.251 -1.28482,-3.00976 z m 6.61,8.3348 c -1.18287,0 -2.25108,0.49304 -3.00955,1.28499 0.91687,0.41826 1.93604,0.65127 3.00955,0.65127 1.0735,0 2.09267,-0.23301 3.00954,-0.65127 -0.75847,-0.79181 -1.82668,-1.28499 -3.00954,-1.28499 z m 5.32518,-5.32504 c 0,1.18294 0.49283,2.25104 1.28517,3.00965 0.41804,-0.91694 0.65122,-1.93629 0.65122,-3.0099 0,-1.07336 -0.23283,-2.09285 -0.65122,-3.00965 -0.79199,0.75861 -1.28517,1.82672 -1.28517,3.0099" />
    <path
       id="path154"
       style="fill:#e7e6e6;fill-opacity:1;fill-rule:evenodd;stroke:none;stroke-width:0.0352777"
       d="m 105.83338,143.61144 c -2.51531,0 -4.55507,2.03976 -4.55507,4.55535 0,2.5152 2.03976,4.55514 4.55507,4.55514 z m -6.61,1.54573 c -0.868892,1.90543 -0.868892,4.11385 0,6.01913 1.71344,-1.64137 1.71274,-4.37762 0,-6.01913 z m 6.61,-4.25206 c -1.07351,0 -2.09268,0.23329 -3.0099,0.65151 0.75882,0.79198 1.82703,1.28502 3.0099,1.28502 z m 0,12.58686 c -1.18287,0 -2.25108,0.49304 -3.00955,1.28499 0.91687,0.41826 1.93604,0.65127 3.00955,0.65127 v -1.93626" />
  </g>
</svg>
