<?xml version="1.0" encoding="UTF-8" standalone="no"?>
<svg
   xmlns:dc="http://purl.org/dc/elements/1.1/"
   xmlns:cc="http://creativecommons.org/ns#"
   xmlns:rdf="http://www.w3.org/1999/02/22-rdf-syntax-ns#"
   xmlns:svg="http://www.w3.org/2000/svg"
   xmlns="http://www.w3.org/2000/svg"
   id="svg128"
   version="1.1"
   viewBox="0 0 14.523253 14.52312"
   height="14.52312mm"
   width="14.523252mm">
  <defs
     id="defs122" />
  <metadata
     id="metadata125">
    <rdf:RDF>
      <cc:Work
         rdf:about="">
        <dc:format>image/svg+xml</dc:format>
        <dc:type
           rdf:resource="http://purl.org/dc/dcmitype/StillImage" />
        <dc:title></dc:title>
      </cc:Work>
    </rdf:RDF>
  </metadata>
  <g
     transform="translate(-45.015655,-49.888551)"
     id="layer1">
    <path
       id="path160"
       style="fill:#e91d29;fill-opacity:1;fill-rule:evenodd;stroke:none;stroke-width:0.0352777"
       d="m 52.277471,49.888551 c -4.009814,0 -7.261578,3.251729 -7.261578,7.261578 0,4.009813 3.251764,7.261542 7.261578,7.261542 4.009813,0 7.261436,-3.251729 7.261436,-7.261542 0,-4.009849 -3.251623,-7.261578 -7.261436,-7.261578" />
    <path
       id="path162"
       style="fill:#d5232f;fill-opacity:1;fill-rule:evenodd;stroke:none;stroke-width:0.0352777"
       d="m 52.277471,49.888551 c -4.009814,0 -7.261578,3.251729 -7.261578,7.261578 0,4.009813 3.251764,7.261542 7.261578,7.261542 v -14.52312" />
    <path
       id="path164"
       style="fill:#ffffff;fill-opacity:1;fill-rule:evenodd;stroke:none;stroke-width:0.0352777"
       d="m 52.27733,52.594886 c -2.515341,0 -4.555243,2.039902 -4.555243,4.555349 0,2.515199 2.039902,4.555137 4.555243,4.555137 2.515481,0 4.555384,-2.039938 4.555384,-4.555137 0,-2.515447 -2.039903,-4.555349 -4.555384,-4.555349" />
    <path
       id="path166"
       style="fill:#ffffff;fill-opacity:1;fill-rule:evenodd;stroke:none;stroke-width:0.0352777"
       d="m 55.287124,50.539955 c -0.916975,-0.418112 -1.93615,-0.651404 -3.009653,-0.651404 -1.073644,0 -2.09296,0.233292 -3.0099,0.65151 0.758754,0.791986 1.826718,1.285028 3.009618,1.285028 1.183181,0 2.251321,-0.493324 3.009935,-1.285134 z m -9.619827,3.600662 c -0.418077,0.91694 -0.651404,1.93615 -0.651404,3.009512 0,1.073467 0.233186,2.092818 0.651404,3.009617 0.791669,-0.758613 1.284887,-1.826577 1.284887,-3.00937 0,-1.183041 -0.493218,-2.251005 -1.284887,-3.009759 z m 6.609892,8.334798 c -1.182759,0 -2.250864,0.493042 -3.009477,1.284993 0.916799,0.418253 1.936256,0.651263 3.009759,0.651263 1.073503,0 2.092678,-0.23301 3.009512,-0.651263 -0.758755,-0.79181 -1.826754,-1.284993 -3.009794,-1.284993 z m 5.325286,-5.325039 c 0,1.182934 0.493077,2.251039 1.285028,3.009652 0.418394,-0.91694 0.651404,-1.936291 0.651404,-3.009899 0,-1.073362 -0.23301,-2.092854 -0.651263,-3.009653 -0.791809,0.758613 -1.285169,1.826718 -1.285169,3.0099" />
    <path
       id="path168"
       style="fill:#e7e6e6;fill-opacity:1;fill-rule:evenodd;stroke:none;stroke-width:0.0352777"
       d="m 52.27733,52.594886 c -2.515341,0 -4.555243,2.039761 -4.555243,4.555349 0,2.515199 2.039902,4.555137 4.555384,4.555137 z m -6.610033,1.545731 c -0.868715,1.905423 -0.868997,4.113847 0,6.019129 1.713301,-1.641369 1.712631,-4.377619 0,-6.019129 z m 6.610174,-4.252066 c -1.073644,0 -2.09296,0.233292 -3.0099,0.65151 0.758754,0.791986 1.826859,1.285028 3.0099,1.285028 z m 0,12.586864 c -1.182899,0 -2.25104,0.493042 -3.009759,1.284993 0.916799,0.418253 1.936256,0.651263 3.009759,0.651263 v -1.936256" />
  </g>
</svg>
