<?xml version="1.0" encoding="UTF-8" standalone="no"?>
<svg
   xmlns:dc="http://purl.org/dc/elements/1.1/"
   xmlns:cc="http://creativecommons.org/ns#"
   xmlns:rdf="http://www.w3.org/1999/02/22-rdf-syntax-ns#"
   xmlns:svg="http://www.w3.org/2000/svg"
   xmlns="http://www.w3.org/2000/svg"
   id="svg75"
   version="1.1"
   viewBox="0 0 14.523314 14.52315"
   height="14.52315mm"
   width="14.523314mm">
  <defs
     id="defs69" />
  <metadata
     id="metadata72">
    <rdf:RDF>
      <cc:Work
         rdf:about="">
        <dc:format>image/svg+xml</dc:format>
        <dc:type
           rdf:resource="http://purl.org/dc/dcmitype/StillImage" />
        <dc:title></dc:title>
      </cc:Work>
    </rdf:RDF>
  </metadata>
  <g
     transform="translate(60.934276,122.92229)"
     id="layer1">
    <path
       id="path104"
       style="fill:#8dc42d;fill-opacity:1;fill-rule:evenodd;stroke:none;stroke-width:0.0352777"
       d="m -53.67254,-122.92229 c -4.009848,0 -7.261436,3.25155 -7.261436,7.26158 0,4.00967 3.251588,7.26157 7.261436,7.26157 4.010025,0 7.261578,-3.2519 7.261578,-7.26157 0,-4.01003 -3.251553,-7.26158 -7.261578,-7.26158" />
    <path
       id="path106"
       style="fill:#74a834;fill-opacity:1;fill-rule:evenodd;stroke:none;stroke-width:0.0352777"
       d="m -53.67254,-122.92229 c -4.009848,0 -7.261436,3.25155 -7.261436,7.26158 0,4.00967 3.251588,7.26157 7.261436,7.26157 v -14.52315" />
    <path
       id="path108"
       style="fill:#ffffff;fill-opacity:1;fill-rule:evenodd;stroke:none;stroke-width:0.0352777"
       d="m -53.67254,-120.21613 c -2.51534,0 -4.555137,2.04011 -4.555137,4.55542 0,2.5153 2.039797,4.55542 4.555137,4.55542 2.515306,0 4.55542,-2.04012 4.55542,-4.55542 0,-2.51531 -2.040114,-4.55542 -4.55542,-4.55542" />
    <path
       id="path110"
       style="fill:#ffffff;fill-opacity:1;fill-rule:evenodd;stroke:none;stroke-width:0.0352777"
       d="m -50.66264,-122.27106 c -0.917222,-0.41805 -1.936397,-0.65123 -3.0099,-0.65123 -1.073503,0 -2.092854,0.23318 -3.009794,0.65158 0.758614,0.79163 1.826719,1.28482 3.009794,1.28482 1.182864,0 2.251075,-0.49319 3.0099,-1.28517 z m -9.619967,3.6008 c -0.418077,0.91687 -0.651369,1.93604 -0.651369,3.00955 0,1.0735 0.233151,2.09267 0.651369,3.00954 0.791845,-0.75847 1.284887,-1.82668 1.284887,-3.00919 0,-1.18322 -0.493183,-2.25108 -1.284887,-3.0099 z m 6.610067,8.33473 c -1.182934,0 -2.251039,0.49318 -3.009653,1.28517 0.916799,0.41804 1.936292,0.65122 3.009653,0.65122 1.073503,0 2.092678,-0.23318 3.009547,-0.65122 -0.758825,-0.79199 -1.826683,-1.28517 -3.009547,-1.28517 z m 5.325181,-5.32483 c 0,1.18286 0.493183,2.25072 1.284816,3.00919 0.418395,-0.91651 0.651581,-1.93604 0.651581,-3.00954 0,-1.07351 -0.233186,-2.09303 -0.651581,-3.00955 -0.791633,0.75847 -1.284816,1.82668 -1.284816,3.0099" />
    <path
       id="path112"
       style="fill:#e7e6e6;fill-opacity:1;fill-rule:evenodd;stroke:none;stroke-width:0.0352777"
       d="m -53.67254,-120.21613 c -2.51534,0 -4.555137,2.04011 -4.555137,4.55542 0,2.5153 2.039797,4.55542 4.555137,4.55542 z m -6.610067,1.54587 c -0.868821,1.90535 -0.868963,4.11374 0,6.01909 1.713335,-1.64112 1.71263,-4.37762 0,-6.01909 z m 6.610067,-4.25203 c -1.073503,0 -2.092854,0.23318 -3.009794,0.65158 0.758755,0.79198 1.82686,1.28482 3.009794,1.28482 z m 0,12.58676 c -1.182934,0 -2.251039,0.49283 -3.009653,1.28517 0.916799,0.41804 1.936292,0.65122 3.009653,0.65122 v -1.93639" />
  </g>
</svg>
