<?xml version="1.0" encoding="UTF-8" standalone="no"?>
<svg
   xmlns:dc="http://purl.org/dc/elements/1.1/"
   xmlns:cc="http://creativecommons.org/ns#"
   xmlns:rdf="http://www.w3.org/1999/02/22-rdf-syntax-ns#"
   xmlns:svg="http://www.w3.org/2000/svg"
   xmlns="http://www.w3.org/2000/svg"
   id="svg128"
   version="1.1"
   viewBox="0 0 14.523315 14.52312"
   height="14.52312mm"
   width="14.523314mm">
  <defs
     id="defs122" />
  <metadata
     id="metadata125">
    <rdf:RDF>
      <cc:Work
         rdf:about="">
        <dc:format>image/svg+xml</dc:format>
        <dc:type
           rdf:resource="http://purl.org/dc/dcmitype/StillImage" />
        <dc:title></dc:title>
      </cc:Work>
    </rdf:RDF>
  </metadata>
  <g
     transform="translate(-43.779163,-50.223938)"
     id="layer1">
    <path
       id="path174"
       style="fill:#e01a95;fill-opacity:1;fill-rule:evenodd;stroke:none;stroke-width:0.0352777"
       d="m 51.040899,50.223938 c -4.009848,0 -7.261436,3.251729 -7.261436,7.261578 0,4.009813 3.251588,7.261542 7.261436,7.261542 4.010025,0 7.261578,-3.251729 7.261578,-7.261542 0,-4.009849 -3.251553,-7.261578 -7.261578,-7.261578" />
    <path
       id="path176"
       style="fill:#d51d55;fill-opacity:1;fill-rule:evenodd;stroke:none;stroke-width:0.0352777"
       d="m 51.040899,50.223938 c -4.009848,0 -7.261436,3.251729 -7.261436,7.261578 0,4.009813 3.251588,7.261542 7.261436,7.261542 v -14.52312" />
    <path
       id="path178"
       style="fill:#ffffff;fill-opacity:1;fill-rule:evenodd;stroke:none;stroke-width:0.0352777"
       d="m 51.040899,52.930273 c -2.51534,0 -4.555137,2.039902 -4.555137,4.555349 0,2.515199 2.039797,4.555137 4.555137,4.555137 2.515306,0 4.55542,-2.039938 4.55542,-4.555137 0,-2.515447 -2.040114,-4.555349 -4.55542,-4.555349" />
    <path
       id="path180"
       style="fill:#ffffff;fill-opacity:1;fill-rule:evenodd;stroke:none;stroke-width:0.0352777"
       d="m 54.050799,50.875342 c -0.917222,-0.418112 -1.936397,-0.651404 -3.0099,-0.651404 -1.073503,0 -2.092854,0.233292 -3.009794,0.65151 0.758614,0.791986 1.826719,1.285028 3.009794,1.285028 1.182864,0 2.251075,-0.493324 3.0099,-1.285134 z m -9.619967,3.600662 c -0.418077,0.91694 -0.651369,1.93615 -0.651369,3.009512 0,1.073467 0.233151,2.092818 0.651369,3.009617 0.791845,-0.758613 1.284887,-1.826577 1.284887,-3.00937 0,-1.183041 -0.493183,-2.251005 -1.284887,-3.009759 z m 6.610067,8.334798 c -1.182934,0 -2.251039,0.493042 -3.009653,1.284993 0.916799,0.418253 1.936292,0.651263 3.009653,0.651263 1.073503,0 2.092678,-0.23301 3.009547,-0.651263 -0.758825,-0.79181 -1.826683,-1.284993 -3.009547,-1.284993 z m 5.325181,-5.325039 c 0,1.182934 0.493183,2.251039 1.284816,3.009652 0.418395,-0.91694 0.651581,-1.936291 0.651581,-3.009899 0,-1.073362 -0.233186,-2.092854 -0.651581,-3.009653 -0.791633,0.758613 -1.284816,1.826718 -1.284816,3.0099" />
    <path
       id="path182"
       style="fill:#e7e6e6;fill-opacity:1;fill-rule:evenodd;stroke:none;stroke-width:0.0352777"
       d="m 51.040899,52.930273 c -2.51534,0 -4.555137,2.039761 -4.555137,4.555349 0,2.515199 2.039797,4.555137 4.555137,4.555137 z m -6.610067,1.545731 c -0.868821,1.905423 -0.868962,4.113847 0,6.019129 1.713336,-1.641369 1.71263,-4.377619 0,-6.019129 z m 6.610067,-4.252066 c -1.073503,0 -2.092854,0.233292 -3.009794,0.65151 0.758755,0.791986 1.82686,1.285028 3.009794,1.285028 z m 0,12.586864 c -1.182934,0 -2.251039,0.493042 -3.009653,1.284993 0.916799,0.418253 1.936292,0.651263 3.009653,0.651263 v -1.936256" />
  </g>
</svg>
