<?xml version="1.0" encoding="UTF-8" standalone="no"?>
<svg
   xmlns:dc="http://purl.org/dc/elements/1.1/"
   xmlns:cc="http://creativecommons.org/ns#"
   xmlns:rdf="http://www.w3.org/1999/02/22-rdf-syntax-ns#"
   xmlns:svg="http://www.w3.org/2000/svg"
   xmlns="http://www.w3.org/2000/svg"
   id="svg128"
   version="1.1"
   viewBox="0 0 14.523457 14.52312"
   height="14.52312mm"
   width="14.523457mm">
  <defs
     id="defs122" />
  <metadata
     id="metadata125">
    <rdf:RDF>
      <cc:Work
         rdf:about="">
        <dc:format>image/svg+xml</dc:format>
        <dc:type
           rdf:resource="http://purl.org/dc/dcmitype/StillImage" />
        <dc:title></dc:title>
      </cc:Work>
    </rdf:RDF>
  </metadata>
  <g
     transform="translate(-105.45602,-112.16253)"
     id="layer1">
    <path
       id="path188"
       style="fill:#ad3ba1;fill-opacity:1;fill-rule:evenodd;stroke:none;stroke-width:0.0352777"
       d="m 112.71791,112.16253 c -4.01003,0 -7.26158,3.25173 -7.26158,7.26158 0,4.00981 3.25155,7.26154 7.26158,7.26154 4.00967,0 7.26157,-3.25173 7.26157,-7.26154 0,-4.00985 -3.2519,-7.26158 -7.26157,-7.26158" />
    <path
       id="path190"
       style="fill:#7e2589;fill-opacity:1;fill-rule:evenodd;stroke:none;stroke-width:0.0352777"
       d="m 112.71791,112.16253 c -4.01003,0 -7.26158,3.25173 -7.26158,7.26158 0,4.00981 3.25155,7.26154 7.26158,7.26154 v -14.52312" />
    <path
       id="path192"
       style="fill:#ffffff;fill-opacity:1;fill-rule:evenodd;stroke:none;stroke-width:0.0352777"
       d="m 112.71791,114.86886 c -2.51531,0 -4.55542,2.03991 -4.55542,4.55535 0,2.5152 2.04011,4.55514 4.55542,4.55514 2.5153,0 4.55506,-2.03994 4.55506,-4.55514 0,-2.51544 -2.03976,-4.55535 -4.55506,-4.55535" />
    <path
       id="path194"
       style="fill:#ffffff;fill-opacity:1;fill-rule:evenodd;stroke:none;stroke-width:0.0352777"
       d="m 115.72745,112.81393 c -0.91687,-0.41811 -1.93604,-0.6514 -3.00954,-0.6514 -1.07351,0 -2.09303,0.23329 -3.0099,0.65151 0.75882,0.79199 1.82668,1.28503 3.00954,1.28503 1.18322,0 2.25143,-0.49333 3.0099,-1.28514 z m -9.61989,3.60067 c -0.41804,0.91694 -0.65123,1.93615 -0.65123,3.00951 0,1.07347 0.23319,2.09282 0.65123,3.00962 0.79198,-0.75862 1.28517,-1.82658 1.28517,-3.00938 0,-1.18304 -0.49319,-2.251 -1.28517,-3.00975 z m 6.60999,8.33479 c -1.18286,0 -2.25072,0.49305 -3.00954,1.285 0.91687,0.41825 1.93639,0.65126 3.0099,0.65126 1.0735,0 2.09267,-0.23301 3.00954,-0.65126 -0.75882,-0.79181 -1.82668,-1.285 -3.0099,-1.285 z m 5.32554,-5.32504 c 0,1.18294 0.49283,2.25104 1.28481,3.00966 0.4184,-0.91694 0.65158,-1.93629 0.65158,-3.0099 0,-1.07336 -0.23318,-2.09286 -0.65158,-3.00966 -0.79163,0.75862 -1.28481,1.82672 -1.28481,3.0099" />
    <path
       id="path196"
       style="fill:#e7e6e6;fill-opacity:1;fill-rule:evenodd;stroke:none;stroke-width:0.0352777"
       d="m 112.71755,114.86886 c -2.51495,0 -4.55506,2.03977 -4.55506,4.55535 0,2.5152 2.04011,4.55514 4.55542,4.55514 z m -6.60999,1.54574 c -0.86854,1.90542 -0.86889,4.11384 0,6.01913 1.71344,-1.64137 1.71273,-4.37762 0,-6.01913 z m 6.61035,-4.25207 c -1.07351,0 -2.09303,0.23329 -3.0099,0.65151 0.75882,0.79199 1.82668,1.28503 3.0099,1.28503 z m 0,12.58686 c -1.18287,0 -2.25108,0.49305 -3.0099,1.285 0.91687,0.41825 1.93639,0.65126 3.0099,0.65126 v -1.93626" />
  </g>
</svg>
