<?xml version="1.0" encoding="UTF-8" standalone="no"?>
<svg
   xmlns:dc="http://purl.org/dc/elements/1.1/"
   xmlns:cc="http://creativecommons.org/ns#"
   xmlns:rdf="http://www.w3.org/1999/02/22-rdf-syntax-ns#"
   xmlns:svg="http://www.w3.org/2000/svg"
   xmlns="http://www.w3.org/2000/svg"
   id="svg128"
   version="1.1"
   viewBox="0 0 14.523459 14.52316"
   height="14.52316mm"
   width="14.523458mm">
  <defs
     id="defs122" />
  <metadata
     id="metadata125">
    <rdf:RDF>
      <cc:Work
         rdf:about="">
        <dc:format>image/svg+xml</dc:format>
        <dc:type
           rdf:resource="http://purl.org/dc/dcmitype/StillImage" />
        <dc:title></dc:title>
      </cc:Work>
    </rdf:RDF>
  </metadata>
  <g
     transform="translate(-48.085862,-50.077091)"
     id="layer1">
    <path
       id="path118"
       style="fill:#f3d40e;fill-opacity:1;fill-rule:evenodd;stroke:none;stroke-width:0.0352777"
       d="m 55.347751,50.077091 c -4.01003,0 -7.26158,3.25191 -7.26158,7.26158 0,4.01002 3.25155,7.26158 7.26158,7.26158 4.00967,0 7.26157,-3.25156 7.26157,-7.26158 0,-4.00967 -3.2519,-7.26158 -7.26157,-7.26158" />
    <path
       id="path120"
       style="fill:#e8c315;fill-opacity:1;fill-rule:evenodd;stroke:none;stroke-width:0.0352777"
       d="m 55.347751,50.077091 c -4.01003,0 -7.26158,3.25191 -7.26158,7.26158 0,4.01002 3.25155,7.26158 7.26158,7.26158 v -14.52316" />
    <path
       id="path122"
       style="fill:#ffffff;fill-opacity:1;fill-rule:evenodd;stroke:none;stroke-width:0.0352777"
       d="m 55.347751,52.783601 c -2.51531,0 -4.55542,2.03976 -4.55542,4.55507 0,2.51566 2.04011,4.55542 4.55542,4.55542 2.5153,0 4.55506,-2.03976 4.55506,-4.55542 0,-2.51531 -2.03976,-4.55507 -4.55506,-4.55507" />
    <path
       id="path124"
       style="fill:#ffffff;fill-opacity:1;fill-rule:evenodd;stroke:none;stroke-width:0.0352777"
       d="m 58.357291,50.728671 c -0.91687,-0.41839 -1.93604,-0.65158 -3.00954,-0.65158 -1.07351,0 -2.09303,0.23319 -3.0099,0.65158 0.75882,0.79199 1.82668,1.28517 3.00954,1.28517 1.18322,0 2.25143,-0.49354 3.0099,-1.28517 z m -9.619893,3.60045 c -0.418041,0.91687 -0.651227,1.93604 -0.651227,3.00955 0,1.0735 0.233186,2.09268 0.651227,3.00954 0.791983,-0.75847 1.285173,-1.82633 1.285173,-3.00919 0,-1.18286 -0.49319,-2.25107 -1.285173,-3.0099 z m 6.609993,8.33473 c -1.18286,0 -2.25072,0.49318 -3.00954,1.28517 0.91687,0.41804 1.93639,0.65123 3.0099,0.65123 1.0735,0 2.09267,-0.23319 3.00954,-0.65123 -0.75882,-0.79199 -1.82668,-1.28517 -3.0099,-1.28517 z m 5.32554,-5.32483 c 0,1.18286 0.49283,2.25108 1.28481,3.00955 0.4184,-0.91687 0.65158,-1.9364 0.65158,-3.0099 0,-1.07351 -0.23318,-2.09268 -0.65158,-3.00955 -0.79163,0.75847 -1.28481,1.82668 -1.28481,3.0099" />
    <path
       id="path126"
       style="fill:#e7e6e6;fill-opacity:1;fill-rule:evenodd;stroke:none;stroke-width:0.0352777"
       d="m 55.347391,52.783601 c -2.51495,0 -4.55506,2.03976 -4.55506,4.55542 0,2.51531 2.04011,4.55507 4.55542,4.55507 z m -6.609993,1.54552 c -0.868538,1.90535 -0.868891,4.11409 0,6.01909 1.713443,-1.64112 1.712733,-4.37761 0,-6.01909 z m 6.610353,-4.25203 c -1.07351,0 -2.09303,0.23319 -3.0099,0.65158 0.75882,0.79199 1.82668,1.28517 3.0099,1.28517 z m 0,12.58676 c -1.18287,0 -2.25108,0.49318 -3.0099,1.28517 0.91687,0.41804 1.93639,0.65123 3.0099,0.65123 v -1.9364" />
  </g>
</svg>
